REM DIRINDEX 1\2\3,1\2\4,1\2\5,1\2\6
REM DIRNAME cjc157,folder01,folder02,folder03,folder04,folder05
TITLE ""
FILE "180 180.mp3" MP3
  TRACK 01 AUDIO
    TITLE "0:"
    INDEX 01 00:00:00
  TRACK 02 AUDIO
    TITLE "3:cjc157_6528"
    INDEX 01 00:00:09
  TRACK 03 AUDIO
    TITLE "0:"
    INDEX 01 00:01:17
  TRACK 04 AUDIO
    TITLE "4:cjc157_6529"
    INDEX 01 00:01:64
  TRACK 05 AUDIO
    TITLE "0:"
    INDEX 01 00:03:35
  TRACK 06 AUDIO
    TITLE "5:cjc157_6530"
    INDEX 01 00:04:01
  TRACK 07 AUDIO
    TITLE "0:"
    INDEX 01 00:07:68
  TRACK 08 AUDIO
    TITLE "3:cjc157_6531"
    INDEX 01 00:08:42
  TRACK 09 AUDIO
    TITLE "0:"
    INDEX 01 00:10:10
  TRACK 10 AUDIO
    TITLE "4:cjc157_6532"
    INDEX 01 00:10:63
  TRACK 11 AUDIO
    TITLE "0:"
    INDEX 01 00:12:32
  TRACK 12 AUDIO
    TITLE "5:cjc157_6533"
    INDEX 01 00:13:04
  TRACK 13 AUDIO
    TITLE "0:"
    INDEX 01 00:17:37
  TRACK 14 AUDIO
    TITLE "3:cjc157_6534"
    INDEX 01 00:18:11
  TRACK 15 AUDIO
    TITLE "0:"
    INDEX 01 00:19:52
  TRACK 16 AUDIO
    TITLE "4:cjc157_6535"
    INDEX 01 00:20:24
  TRACK 17 AUDIO
    TITLE "0:"
    INDEX 01 00:24:20
  TRACK 18 AUDIO
    TITLE "5:cjc157_6536"
    INDEX 01 00:24:63
  TRACK 19 AUDIO
    TITLE "0:"
    INDEX 01 00:27:57
  TRACK 20 AUDIO
    TITLE "5:cjc157_6537"
    INDEX 01 00:28:27
  TRACK 21 AUDIO
    TITLE "0:"
    INDEX 01 00:31:49
  TRACK 22 AUDIO
    TITLE "3:cjc157_6538"
    INDEX 01 00:32:21
  TRACK 23 AUDIO
    TITLE "0:"
    INDEX 01 00:33:54
  TRACK 24 AUDIO
    TITLE "4:cjc157_6539"
    INDEX 01 00:34:26
  TRACK 25 AUDIO
    TITLE "0:"
    INDEX 01 00:36:11
  TRACK 26 AUDIO
    TITLE "5:cjc157_6540"
    INDEX 01 00:36:58
  TRACK 27 AUDIO
    TITLE "0:"
    INDEX 01 00:40:05
  TRACK 28 AUDIO
    TITLE "3:cjc157_6541"
    INDEX 01 00:40:52
  TRACK 29 AUDIO
    TITLE "0:"
    INDEX 01 00:42:14
  TRACK 30 AUDIO
    TITLE "4:cjc157_6542"
    INDEX 01 00:42:61
  TRACK 31 AUDIO
    TITLE "0:"
    INDEX 01 00:44:42
  TRACK 32 AUDIO
    TITLE "5:cjc157_6543"
    INDEX 01 00:45:16
  TRACK 33 AUDIO
    TITLE "0:"
    INDEX 01 00:49:59
  TRACK 34 AUDIO
    TITLE "3:cjc157_6544"
    INDEX 01 00:50:27
  TRACK 35 AUDIO
    TITLE "0:"
    INDEX 01 00:51:52
  TRACK 36 AUDIO
    TITLE "4:cjc157_6545"
    INDEX 01 00:52:22
  TRACK 37 AUDIO
    TITLE "0:"
    INDEX 01 00:53:43
  TRACK 38 AUDIO
    TITLE "5:cjc157_6546"
    INDEX 01 00:54:15
  TRACK 39 AUDIO
    TITLE "0:"
    INDEX 01 00:58:18
  TRACK 40 AUDIO
    TITLE "3:cjc157_6547"
    INDEX 01 00:58:67
  TRACK 41 AUDIO
    TITLE "0:"
    INDEX 01 01:00:12
  TRACK 42 AUDIO
    TITLE "4:cjc157_6548"
    INDEX 01 01:00:59
  TRACK 43 AUDIO
    TITLE "0:"
    INDEX 01 01:02:18
  TRACK 44 AUDIO
    TITLE "5:cjc157_6549"
    INDEX 01 01:02:65
  TRACK 45 AUDIO
    TITLE "0:"
    INDEX 01 01:06:26
  TRACK 46 AUDIO
    TITLE "3:cjc157_6550"
    INDEX 01 01:07:08
  TRACK 47 AUDIO
    TITLE "0:"
    INDEX 01 01:08:38
  TRACK 48 AUDIO
    TITLE "4:cjc157_6551"
    INDEX 01 01:09:09
  TRACK 49 AUDIO
    TITLE "0:"
    INDEX 01 01:10:49
  TRACK 50 AUDIO
    TITLE "5:cjc157_6552"
    INDEX 01 01:11:15
  TRACK 51 AUDIO
    TITLE "0:"
    INDEX 01 01:15:29
  TRACK 52 AUDIO
    TITLE "3:cjc157_6553"
    INDEX 01 01:15:74
  TRACK 53 AUDIO
    TITLE "0:"
    INDEX 01 01:17:41
  TRACK 54 AUDIO
    TITLE "4:cjc157_6554"
    INDEX 01 01:18:13
  TRACK 55 AUDIO
    TITLE "0:"
    INDEX 01 01:19:40
  TRACK 56 AUDIO
    TITLE "5:cjc157_6555"
    INDEX 01 01:20:08
  TRACK 57 AUDIO
    TITLE "0:"
    INDEX 01 01:23:11
  TRACK 58 AUDIO
    TITLE "3:cjc157_6556"
    INDEX 01 01:23:58
  TRACK 59 AUDIO
    TITLE "0:"
    INDEX 01 01:25:35
  TRACK 60 AUDIO
    TITLE "4:cjc157_6557"
    INDEX 01 01:26:01
  TRACK 61 AUDIO
    TITLE "0:"
    INDEX 01 01:27:32
  TRACK 62 AUDIO
    TITLE "5:cjc157_6558"
    INDEX 01 01:28:06
  TRACK 63 AUDIO
    TITLE "0:"
    INDEX 01 01:31:02
